Patient4_TMGait_0pt4_01_right_43_GRF.mot
version=1
nRows=45
nColumns=19
inDegrees=no
endheader
time	F1x	F1y	F1z	M1x	M1y	M1z	F2x	F2y	F2z	M2x	M2y	M2z	EC1x	EC1y	EC1z	EC2x	EC2y	EC2z
56.13	-1.0618	725.1387	77.9449	-229.3697	-81.0478	814.3762	-14.6637	-12.136	6.5741	-3.4964	-1.8521	-9.9659	-0.0592	0.0182	-0.0073	-0.0462	0.0165	0.9585
56.1438	-1.6483	727.474	71.9248	-229.9919	-75.2521	815.4075	-9.6522	-7.1118	4.3384	-1.9495	-1.1943	-5.4496	-0.0592	0.0182	-0.0073	-0.0462	0.0165	0.9585
56.1576	-1.6142	731.7577	66.4476	-231.3112	-69.6879	817.931	-5.5003	-2.8327	2.4501	-0.62836	-0.62475	-1.5703	-0.0592	0.0182	-0.0073	-0.0462	0.0165	0.9585
56.1714	-0.90225	737.8424	61.7577	-233.3155	-64.5806	821.7816	-2.4145	0.46477	1.0108	0.39417	-0.1761	1.4505	-0.0592	0.0182	-0.0073	-0.0462	0.0165	0.9585
56.1851	0.45177	745.1789	57.8839	-235.8502	-59.9914	826.404	-0.32417	2.7774	0.016713	1.116	0.14133	3.5806	-0.0592	0.0182	-0.0073	-0.0462	0.0165	0.9585
56.1989	2.3717	752.98	54.7506	-238.6711	-55.8963	831.0077	0.92189	4.2506	-0.6024	1.5787	0.35367	4.9456	-0.0592	0.0182	-0.0073	-0.0462	0.0165	0.9585
56.2127	4.8075	760.4219	52.2219	-241.5155	-52.2044	834.758	1.5224	5.0453	-0.93963	1.8297	0.49529	5.6805	-0.0592	0.0182	-0.0073	-0.0462	0.0165	0.9585
56.2265	7.7154	766.8022	50.1688	-244.1558	-48.8252	836.9694	1.6727	5.3019	-1.0854	1.9086	0.59739	5.902	-0.0592	0.0182	-0.0073	-0.0462	0.0165	0.9585
56.2403	11.0758	771.646	48.4456	-246.4378	-45.6399	837.1954	1.5201	5.1473	-1.1139	1.8466	0.68667	5.7194	-0.0592	0.0182	-0.0073	-0.0462	0.0165	0.9585
56.2541	14.861	774.7779	46.9543	-248.2959	-42.5758	835.305	1.2077	4.6371	-1.0795	1.6521	0.77339	5.1476	-0.0592	0.0182	-0.0073	-0.0462	0.0165	0.9585
56.2679	19.0135	776.3149	45.6111	-249.7476	-39.5816	831.4978	0.8107	3.7932	-1.0175	1.3207	0.86262	4.1878	-0.0592	0.0182	-0.0073	-0.0462	0.0165	0.9585
56.2816	23.4344	776.5724	44.4034	-250.8573	-36.6795	826.2048	0.40648	2.61	-0.95414	0.84316	0.95171	2.8101	-0.0592	0.0182	-0.0073	-0.0462	0.0165	0.9585
56.2954	27.9772	775.9628	43.3531	-251.7021	-33.928	819.9758	0.075388	1.0847	-0.90221	0.21609	1.025	0.998	-0.0592	0.0182	-0.0073	-0.0462	0.0165	0.9585
56.3092	32.4895	774.8381	42.5398	-252.324	-31.4396	813.3148	-0.12826	-0.74475	-0.85701	-0.54355	1.052	-1.1918	-0.0592	0.0182	-0.0073	-0.0462	0.0165	0.9585
56.323	36.7962	773.3779	42.0607	-252.7009	-29.3494	806.5574	-0.10514	-2.7535	-0.80498	-1.3784	0.97767	-3.6114	-0.0592	0.0182	-0.0073	-0.0462	0.0165	0.9585
56.3368	40.738	771.5821	42.0376	-252.7527	-27.818	799.8531	0.25525	-4.6104	-0.71621	-2.1515	0.72071	-5.8566	-0.0592	0.0182	-0.0073	-0.0462	0.0165	0.9585
56.3506	44.1753	769.3573	42.5615	-252.3841	-26.9784	793.237	1.0917	-5.7487	-0.55252	-2.6273	0.17881	-7.2388	-0.0592	0.0182	-0.0073	-0.0462	0.0165	0.9585
56.3644	46.9727	766.6672	43.6649	-251.5437	-26.9182	786.7871	2.5432	-5.3025	-0.2612	-2.4436	-0.76533	-6.7058	-0.0592	0.0182	-0.0073	-0.0462	0.0165	0.9585
56.3781	49.0425	763.4915	45.2775	-250.2173	-27.6147	780.5438	4.7157	-2.0362	0.20737	-1.091	-2.2124	-2.747	-0.0592	0.0182	-0.0073	-0.0462	0.0165	0.9585
56.3919	50.3421	759.6756	47.2823	-248.374	-28.9816	774.3735	7.6682	5.5946	0.905	2.069	-4.2334	6.5221	-0.0592	0.0182	-0.0073	-0.0462	0.0165	0.9585
56.4057	50.8945	754.7638	49.4981	-245.9068	-30.8466	767.7809	11.2749	19.3287	1.857	7.7532	-6.7976	23.2366	-0.0592	0.0182	-0.0073	-0.0462	0.0165	0.9585
56.4195	50.7956	747.9124	51.703	-242.6017	-32.9634	759.8238	15.1515	40.8097	3.0446	16.6387	-9.7129	49.4107	-0.0592	0.0182	-0.0073	-0.0462	0.0165	0.9585
56.4333	50.1603	737.9741	53.6035	-238.1621	-35.004	749.2444	18.5232	71.0862	4.3594	29.1529	-12.518	86.3323	-0.0592	0.0182	-0.0073	-0.0462	0.0165	0.9585
56.4471	49.0886	723.7002	54.8854	-232.2688	-36.6219	734.686	20.0673	109.7986	5.5612	45.1419	-14.3752	133.582	-0.0592	0.0182	-0.0073	-0.0462	0.0165	0.9585
56.4609	47.6547	704.1485	55.2656	-224.7022	-37.5102	715.1151	18.1262	154.3153	6.2072	63.5134	-14.0909	187.991	-0.0592	0.0182	-0.0073	-0.0462	0.0165	0.9585
56.4746	45.9276	679.1472	54.5601	-215.4835	-37.4564	690.2695	12.2971	200.0072	5.6988	82.314	-10.8076	244.0274	-0.0592	0.0182	-0.0073	-0.0462	0.0165	0.9585
56.4884	44.0139	649.615	52.7848	-204.9697	-36.4331	660.9704	4.4167	241.354	3.761	99.2435	-5.0068	294.9375	-0.0592	0.0182	-0.0073	-0.0462	0.0165	0.9585
56.5022	42.0608	617.4052	50.1714	-193.7946	-34.6099	628.9754	-3.3527	274.1548	0.74681	112.5831	1.9689	335.452	-0.0592	0.0182	-0.0073	-0.0462	0.0165	0.9585
56.516	40.2488	584.784	47.1229	-182.6971	-32.312	596.4667	-9.8937	297.1976	-2.6919	121.8599	8.8565	364.0477	-0.0592	0.0182	-0.0073	-0.0462	0.0165	0.9585
56.5298	38.715	553.9277	44.0285	-172.3613	-29.8682	565.5784	-14.9225	311.8174	-5.7848	127.6606	14.6402	382.4289	-0.0592	0.0182	-0.0073	-0.0462	0.0165	0.9585
56.5436	37.5231	526.4185	41.186	-163.2655	-27.544	537.9001	-18.7058	320.5135	-8.0151	131.0494	18.8291	393.756	-0.0592	0.0182	-0.0073	-0.0462	0.0165	0.9585
56.5574	36.7201	502.9704	38.684	-155.6084	-25.4151	514.1652	-21.5802	325.9916	-9.1068	133.1652	21.2684	401.3469	-0.0592	0.0182	-0.0073	-0.0462	0.0165	0.9585
56.5711	36.3043	483.2579	36.4846	-149.2597	-23.4493	494.08	-23.801	330.7922	-9.1741	135.0472	22.2253	408.2519	-0.0592	0.0182	-0.0073	-0.0462	0.0165	0.9585
56.5849	36.2434	465.9908	34.4822	-143.788	-21.5627	476.3589	-25.566	337.0689	-8.6261	137.5447	22.2904	417.0356	-0.0592	0.0182	-0.0073	-0.0462	0.0165	0.9585
56.5987	36.4366	449.3019	32.5909	-138.5803	-19.7087	459.1442	-27.0254	346.2489	-7.9832	141.2023	22.1653	429.3739	-0.0592	0.0182	-0.0073	-0.0462	0.0165	0.9585
56.6125	36.7022	431.1441	30.7455	-132.9687	-17.8798	440.3971	-28.3629	358.9516	-7.8244	146.2298	22.6051	445.9737	-0.0592	0.0182	-0.0073	-0.0462	0.0165	0.9585
56.6263	36.7662	409.6984	28.8544	-126.3611	-16.0723	418.3054	-29.7523	375.2637	-8.5423	152.6311	24.1436	466.8762	-0.0592	0.0182	-0.0073	-0.0462	0.0165	0.9585
56.6401	36.2932	383.701	26.8217	-118.3475	-14.2997	391.6302	-31.3786	395.1591	-10.3645	160.375	27.1079	491.9846	-0.0592	0.0182	-0.0073	-0.0462	0.0165	0.9585
56.6539	34.9928	352.6472	24.5392	-108.7634	-12.5541	359.8803	-33.3565	418.7779	-13.3303	169.5073	31.5771	521.3886	-0.0592	0.0182	-0.0073	-0.0462	0.0165	0.9585
56.6676	32.6422	316.848	21.9599	-97.7052	-10.8612	323.3896	-35.6988	446.5065	-17.4078	180.1736	37.4973	555.4725	-0.0592	0.0182	-0.0073	-0.0462	0.0165	0.9585
56.6814	29.1718	277.3645	19.1139	-85.5082	-9.2692	283.2299	-38.3354	478.8368	-22.4394	192.5605	44.6448	594.7401	-0.0592	0.0182	-0.0073	-0.0462	0.0165	0.9585
56.6952	24.6813	235.8437	16.1503	-72.6876	-7.8825	241.0526	-41.1489	516.0312	-28.2318	206.7653	52.7301	639.4223	-0.0592	0.0182	-0.0073	-0.0462	0.0165	0.9585
56.709	19.4349	194.2589	13.2663	-59.8527	-6.8	198.8262	-44.0041	557.821	-34.5333	222.6751	61.3943	689.1342	-0.0592	0.0182	-0.0073	-0.0462	0.0165	0.9585
56.7228	13.8648	154.5569	10.6496	-47.6008	-6.061	158.4772	-46.7175	603.1799	-41.111	239.8751	70.2802	742.6089	-0.0592	0.0182	-0.0073	-0.0462	0.0165	0.9585
56.7366	8.4753	118.3304	8.3817	-36.4241	-5.5825	121.5893	-49.0826	650.2681	-47.713	257.6313	79.0017	797.6355	-0.0592	0.0182	-0.0073	-0.0462	0.0165	0.9585
